<?xml version="1.0" encoding="utf-8"?>
<!-- Generator: Adobe Illustrator 26.3.1, SVG Export Plug-In . SVG Version: 6.00 Build 0)  -->
<svg version="1.1" id="圖層_1" xmlns="http://www.w3.org/2000/svg" xmlns:xlink="http://www.w3.org/1999/xlink" x="0px" y="0px"
	 viewBox="0 0 901.8 400" style="enable-background:new 0 0 901.8 400;" xml:space="preserve">
<style type="text/css">
	.st0{fill:url(#SVGID_1_);}
	.st1{fill:url(#SVGID_00000157988187605178067740000008356522275510337679_);}
	.st2{fill:url(#SVGID_00000132786958746962942090000009190465936095330477_);}
	.st3{fill:#DC8027;}
	.st4{fill:none;}
	.st5{fill:#F29600;}
</style>
<path d="M169.7,254.1l4.6,3.9h16.6l3.6-3.9l36.6-86.1l38.5,86.2l4.2,3.8h17l3.4-4.8l-55.1-122h-15.7L169.7,254.1z"/>
<path d="M271.9,151.8l2.7,2.1h37.5c0.3,34,0.5,68,0.8,102l2.7,2.1h19.2l2.7-2.1c0-34,0-68,0-102h38.3l2.7-2.1v-18.4l-2.7-2.1H274.6
	l-2.7,2.1V151.8z"/>
<path d="M394.3,255.9l2.7,2.1h18.8l2.7-2.1c0.1-40.8,0.3-81.7,0.4-122.6l-2.7-2.1H397l-2.7,2.1C394.3,174.2,394.3,215.1,394.3,255.9
	z"/>
<polygon points="489.1,258.1 495.8,258.1 549.1,134.9 545.9,131.3 527,131.3 525.3,133.3 492.7,209.9 460,133.8 457.1,131.3 
	438.8,131.3 435.9,134.4 "/>
<path d="M562.2,255.8l2.8,2.2h93.3l2.7-2.1v-18.6l-2.7-2.1H587v-29.5h45.9l2.8-2.1c0-6.3-0.1-12.7-0.1-19l-2.7-2.1H587v-28.5h68.4
	c0.9-0.7,1.8-1.4,2.7-2.1l0.1-18.3l-3-2.4H565l-2.7,2.1C562.3,174,562.3,214.9,562.2,255.8z"/>
<linearGradient id="SVGID_1_" gradientUnits="userSpaceOnUse" x1="3" y1="216.93" x2="150.71" y2="216.93" gradientTransform="matrix(1 0 0 -1 0 402)">
	<stop  offset="0" style="stop-color:#D45E2E"/>
	<stop  offset="0.39" style="stop-color:#D36230"/>
	<stop  offset="0.54" style="stop-color:#D87430"/>
	<stop  offset="0.68" style="stop-color:#D97630"/>
	<stop  offset="1" style="stop-color:#DC8930"/>
</linearGradient>
<path class="st0" d="M3,252.5l23,8.1v-91.1l96.4,91.3l28.3-9.7L3,109.4V252.5z"/>
<linearGradient id="SVGID_00000126313758660655570390000012719740493549435577_" gradientUnits="userSpaceOnUse" x1="59.0369" y1="229.0718" x2="19.5947" y2="160.7678" gradientTransform="matrix(1 0 0 -1 0 402)">
	<stop  offset="0" style="stop-color:#DC8027"/>
	<stop  offset="9.000000e-02" style="stop-color:#DD8829"/>
	<stop  offset="0.37" style="stop-color:#E19D2D"/>
	<stop  offset="0.46" style="stop-color:#E1AC30"/>
	<stop  offset="0.58" style="stop-color:#E0BA33"/>
	<stop  offset="0.73" style="stop-color:#E0C235"/>
	<stop  offset="1" style="stop-color:#E0C435"/>
</linearGradient>
<polygon style="fill:url(#SVGID_00000126313758660655570390000012719740493549435577_);" points="48.9,251.1 26,260.6 26,169.5 
	48.9,191.3 "/>
<linearGradient id="SVGID_00000072276337043415255060000011252807750072698271_" gradientUnits="userSpaceOnUse" x1="-1.46" y1="310.2673" x2="170.6927" y2="210.8757" gradientTransform="matrix(1 0 0 -1 0 402)">
	<stop  offset="0.12" style="stop-color:#DF8F2A"/>
	<stop  offset="0.23" style="stop-color:#DF942B"/>
	<stop  offset="0.36" style="stop-color:#E0A12D"/>
	<stop  offset="0.45" style="stop-color:#E1AF30"/>
	<stop  offset="0.63" style="stop-color:#E0C033"/>
	<stop  offset="1" style="stop-color:#E0C435"/>
</linearGradient>
<path style="fill:url(#SVGID_00000072276337043415255060000011252807750072698271_);" d="M150.7,108l-23-8.1V191L31.3,99.7L3,109.4
	l147.7,141.8V108z"/>
<polygon class="st3" points="104.8,109.4 127.7,99.9 127.7,191 104.8,169.2 "/>
<path d="M773,253.9l4.6,3.9h16.6l3.6-3.9l36.6-86l38.6,86.2l4.2,3.8h17l3.4-4.8l-55.1-122h-15.7L773,253.9z"/>
<line class="st4" x1="747.6" y1="131.1" x2="751" y2="131"/>
<path class="st4" d="M712.9,178.2l-14.5,25.1h24.3v-18.6c0-8,0.9-20.2,1.2-28.2h-0.7C719.9,163.7,716.5,171,712.9,178.2z"/>
<path class="st5" d="M761.6,203.3H751v-69.5l-3.5-2.8h-34l-44.3,74.4v17.5l4.6,3.6h48.8v29.4l3.1,2.4h22.8l2.5-1.9v-29.9h10.2l4-3.1
	v-17.1L761.6,203.3z M722.6,184.7v18.6h-24.3l14.5-25.1c3.6-7.2,7-14.5,10.3-21.7h0.7C723.5,164.5,722.6,176.6,722.6,184.7z"/>
</svg>
